<mxfile host="app.diagrams.net" modified="2023-11-07T12:37:23.485Z" agent="Mozilla/5.0 (Windows NT 10.0; Win64; x64) AppleWebKit/537.36 (KHTML, like Gecko) Chrome/118.0.0.0 Safari/537.36" etag="YIDoAxsFJ5aQFuZt-uF_" version="22.0.8" type="device">
  <diagram name="Trang-1" id="z69pRlIW7Yx1zqnwfwT1">
    <mxGraphModel dx="638" dy="772" grid="1" gridSize="10" guides="1" tooltips="1" connect="1" arrows="1" fold="1" page="1" pageScale="1" pageWidth="827" pageHeight="1169" math="0" shadow="0">
      <root>
        <mxCell id="0" />
        <mxCell id="1" parent="0" />
        <mxCell id="yLKN27g4SH40LraHk8A3-3" value="" style="edgeStyle=orthogonalEdgeStyle;rounded=0;orthogonalLoop=1;jettySize=auto;html=1;" edge="1" parent="1" source="yLKN27g4SH40LraHk8A3-1" target="yLKN27g4SH40LraHk8A3-2">
          <mxGeometry relative="1" as="geometry" />
        </mxCell>
        <mxCell id="yLKN27g4SH40LraHk8A3-1" value="" style="ellipse;whiteSpace=wrap;html=1;" vertex="1" parent="1">
          <mxGeometry x="220" y="50" width="120" height="80" as="geometry" />
        </mxCell>
        <mxCell id="yLKN27g4SH40LraHk8A3-5" value="" style="edgeStyle=orthogonalEdgeStyle;rounded=0;orthogonalLoop=1;jettySize=auto;html=1;" edge="1" parent="1" source="yLKN27g4SH40LraHk8A3-2" target="yLKN27g4SH40LraHk8A3-4">
          <mxGeometry relative="1" as="geometry" />
        </mxCell>
        <mxCell id="yLKN27g4SH40LraHk8A3-2" value="" style="shape=parallelogram;perimeter=parallelogramPerimeter;whiteSpace=wrap;html=1;fixedSize=1;" vertex="1" parent="1">
          <mxGeometry x="220" y="220" width="120" height="60" as="geometry" />
        </mxCell>
        <mxCell id="yLKN27g4SH40LraHk8A3-4" value="" style="rhombus;whiteSpace=wrap;html=1;" vertex="1" parent="1">
          <mxGeometry x="240" y="350" width="80" height="80" as="geometry" />
        </mxCell>
      </root>
    </mxGraphModel>
  </diagram>
</mxfile>
